<svg xmlns="http://www.w3.org/2000/svg" viewBox="0 0 220 28"><path d="M16.36.59c-.75.07-1.55.09-2.38.09H0v1.33c0 .32.02.57.09.75.09.18.18.32.3.43.14.11.3.21.43.27.16.09.3.18.39.3.11.11.21.27.27.46.09.18.14.41.14.73v17.98c0 .32-.05.57-.14.75a1.218 1.218 0 0 1-.66.7c-.16.09-.3.18-.43.3-.11.11-.21.27-.3.46-.07.19-.09.42-.09.74v1.33h8.61v-1.33c0-.32-.05-.55-.14-.73a.89.89 0 0 0-.34-.46c-.14-.11-.3-.21-.46-.3-.23-.09-.39-.18-.53-.27-.14-.11-.25-.25-.34-.43-.09-.21-.14-.46-.14-.75v-8.16h3.06c.3 0 .53.05.69.14.18.09.32.21.39.34.09.14.18.32.27.53s.18.37.27.5c.11.14.25.25.43.37.18.09.39.14.66.14h1.26v-6.69h-1.26c-.27 0-.48.05-.66.16-.18.09-.32.21-.43.34-.09.14-.18.3-.27.5-.09.23-.18.39-.27.53s-.23.25-.39.34c-.18.09-.41.14-.69.14H6.66v-8.7h5.46c.3 0 .53.09.73.27.21.16.34.34.43.57s.18.53.3.94c.09.37.18.69.3.94s.25.43.43.59.41.23.73.23h1.3V.59Zm10.42 12.09c-1.1-.69-2.38-1.03-3.84-1.03s-2.72.34-3.84 1.03c-1.1.66-1.96 1.6-2.58 2.81-.62 1.19-.94 2.58-.94 4.18s.3 2.97.89 4.18a7.216 7.216 0 0 0 2.58 2.81c1.14.66 2.42 1.01 3.88 1.01s2.74-.32 3.84-1.01a6.98 6.98 0 0 0 2.63-2.81c.62-1.21.94-2.6.94-4.18s-.32-2.99-.94-4.18a6.803 6.803 0 0 0-2.63-2.81Zm-1.76 10.26c-.14.85-.41 1.49-.75 1.9-.34.39-.8.59-1.33.59s-.96-.21-1.35-.59c-.32-.43-.57-1.05-.75-1.9-.18-.87-.27-1.94-.27-3.24s.09-2.4.27-3.24c.18-.87.46-1.51.8-1.92.37-.43.8-.64 1.3-.64s.98.23 1.33.64c.34.41.59 1.05.75 1.92.18.85.27 1.92.27 3.24s-.09 2.38-.27 3.24Zm18.16-10.88c-.43-.27-.96-.39-1.55-.39-.82 0-1.58.27-2.28.8-.69.5-1.28 1.26-1.76 2.22-.46.96-.78 2.06-.96 3.36-.09 0-.16 0-.21-.02-.02-.05-.02-.11 0-.21l.37-6.08-5.03.39v1.17c0 .27.02.48.09.66.07.16.14.27.23.37.11.09.23.16.37.23.11.07.21.16.3.27.11.09.21.21.27.37s.09.37.09.64v7.72c0 .27-.02.48-.09.66-.07.16-.14.27-.23.37s-.21.16-.34.23c-.11.07-.23.16-.34.27-.09.09-.16.21-.23.37s-.09.37-.09.64v1.17h7.75V26.1c0-.27-.05-.48-.14-.64-.07-.16-.16-.27-.27-.37a1.3 1.3 0 0 0-.39-.27c-.16-.07-.3-.14-.39-.23a.87.87 0 0 1-.27-.37c-.07-.18-.09-.39-.09-.66v-2.08c0-1.51.14-2.79.43-3.84.3-1.07.69-1.9 1.23-2.42.14-.14.27-.27.43-.37 0 .41.09.8.25 1.17.18.34.43.64.75.82.34.21.75.3 1.23.3.73 0 1.3-.23 1.69-.66.39-.46.59-1.05.59-1.78 0-.59-.14-1.1-.37-1.53-.25-.46-.59-.82-1.05-1.1ZM60.47 25.4c-.07-.16-.14-.27-.23-.37s-.21-.16-.34-.23c-.14-.09-.25-.18-.37-.27-.09-.09-.16-.21-.23-.37-.05-.16-.07-.37-.07-.64V.29l-6.17.39v1.17c0 .27.02.48.09.66.09.16.18.27.3.37.11.09.23.16.37.23s.25.16.37.27c.11.09.21.21.27.37.09.16.14.37.14.64v8.29a5.56 5.56 0 0 0-3.22-1c-1.28 0-2.42.34-3.4 1.03s-1.71 1.64-2.26 2.88c-.53 1.23-.8 2.65-.8 4.25s.25 2.92.75 4.11c.5 1.17 1.21 2.08 2.12 2.74.94.66 1.99 1.01 3.18 1.01.85 0 1.62-.16 2.33-.5.71-.34 1.28-.82 1.71-1.42.11-.14.21-.3.3-.43l.23 2.03 3.4-.09 1.62-.02v-1.21c0-.27-.02-.48-.09-.64Zm-5.85-2.31c0 .34-.09.66-.27.96-.18.32-.41.57-.73.75s-.64.27-1.01.27c-.55 0-1.03-.21-1.42-.64-.37-.43-.69-1.05-.89-1.85s-.3-1.76-.3-2.88.09-2.06.3-2.86c.23-.82.53-1.44.94-1.9.39-.43.87-.66 1.39-.66.37 0 .71.09 1.03.3.32.18.55.41.69.73.18.3.27.62.27.96v6.81ZM83.8.59c-.75.07-1.53.09-2.35.09H67.44v1.33c0 .32.02.57.09.75.09.18.18.32.3.43.14.11.27.21.43.27.16.09.3.18.39.3.11.11.21.27.27.46.09.18.14.41.14.73v17.98c0 .32-.05.57-.14.75a1.218 1.218 0 0 1-.66.7c-.16.09-.3.18-.43.3-.11.11-.21.27-.3.46-.07.18-.09.41-.09.73v1.33h8.61v-1.33c0-.32-.05-.55-.14-.73a.89.89 0 0 0-.34-.46c-.14-.11-.3-.21-.46-.3-.23-.09-.39-.18-.53-.27-.14-.11-.25-.25-.34-.43-.09-.21-.14-.46-.14-.75v-8.16h3.06c.3 0 .53.05.69.14.18.09.32.21.39.34.09.14.18.32.27.53.09.21.18.37.27.5.11.14.25.25.43.37.18.09.39.14.66.14h1.26V10.1h-1.26c-.27 0-.48.05-.66.16-.18.09-.32.21-.43.34-.09.14-.18.3-.27.5-.09.23-.18.39-.27.53-.09.14-.23.25-.39.34-.18.09-.41.14-.69.14H74.1V3.42h5.46c.3 0 .53.09.73.27.21.16.34.34.43.57s.18.53.3.94c.09.37.18.69.3.94s.25.43.43.59.41.23.73.23h1.3V.59Zm10.44 12.09c-1.1-.69-2.38-1.03-3.84-1.03s-2.72.34-3.84 1.03c-1.1.66-1.96 1.6-2.58 2.81-.62 1.19-.94 2.58-.94 4.18s.3 2.97.89 4.18a7.216 7.216 0 0 0 2.58 2.81c1.14.66 2.42 1.01 3.88 1.01s2.72-.32 3.82-.98a6.98 6.98 0 0 0 2.63-2.81c.62-1.21.94-2.6.94-4.18s-.3-2.99-.91-4.2a6.803 6.803 0 0 0-2.63-2.81Zm-1.76 10.26c-.14.85-.41 1.49-.75 1.9-.34.39-.8.59-1.33.59s-.98-.21-1.35-.59c-.32-.43-.57-1.05-.75-1.9-.18-.87-.27-1.94-.27-3.24s.09-2.4.27-3.24c.18-.87.46-1.51.8-1.92.37-.43.8-.64 1.3-.64s.98.23 1.33.64c.34.41.59 1.05.75 1.92.18.85.27 1.92.27 3.24 0 1.3-.09 2.38-.27 3.24Zm22.28 2.1c-.09-.09-.21-.16-.34-.23-.14-.09-.25-.18-.34-.27-.09-.09-.16-.21-.23-.37s-.09-.37-.09-.64V11.72l-6.1.39v1.19c0 .27.02.48.09.66.07.16.14.27.23.37.09.09.21.16.34.23.11.07.21.16.3.27.09.09.16.21.23.37s.09.37.09.64v6.69c0 .43-.09.82-.3 1.17s-.46.59-.75.75c-.32.16-.66.23-1.03.23-.34 0-.66-.07-.94-.21-.25-.16-.43-.39-.59-.69-.16-.32-.23-.71-.23-1.19V11.71l-6.17.39v1.19c0 .27.02.48.09.66.07.16.14.27.23.37.11.09.23.16.37.23.11.07.21.16.3.27.11.09.21.21.27.37.07.16.09.37.09.64v7.2c0 1.12.23 2.03.66 2.74.43.69 1.01 1.17 1.69 1.46.71.32 1.46.46 2.26.46.75 0 1.46-.14 2.12-.43.69-.27 1.28-.64 1.76-1.1.3-.3.55-.62.75-.94l-.07 2.17 4.04-.14 1.62-.02v-1.19c0-.27-.02-.48-.09-.64s-.16-.27-.27-.37Zm17.96.02a.96.96 0 0 0-.3-.27c-.14-.07-.25-.14-.37-.23-.09-.09-.16-.21-.23-.37-.05-.18-.07-.39-.07-.66v-7.17c0-1.01-.21-1.85-.59-2.56-.37-.71-.91-1.23-1.62-1.6-.69-.37-1.49-.57-2.42-.57-1.19 0-2.26.3-3.18.89-.66.43-1.19.98-1.6 1.62l.07-2.44-5.6.39v1.21c0 .27.02.48.09.64.07.16.14.3.23.39.11.09.23.16.37.23.11.07.21.16.3.27.11.09.21.23.27.39.07.16.09.34.09.59v7.72c0 .27-.02.48-.09.66-.07.16-.14.27-.23.37s-.21.16-.34.23c-.11.07-.23.16-.34.27-.09.09-.16.21-.23.37s-.09.37-.09.64v1.17h7.13v-1.17c0-.27-.02-.48-.07-.64-.05-.16-.09-.27-.16-.37a.887.887 0 0 0-.23-.27c-.11-.07-.21-.14-.27-.23s-.11-.21-.16-.37c-.05-.18-.07-.39-.07-.66v-6.67c0-.43.09-.82.27-1.17s.43-.59.75-.75c.34-.21.71-.3 1.12-.3.55 0 .98.18 1.3.57.32.34.46.87.46 1.55v6.76c0 .37-.05.64-.14.8-.07.14-.18.3-.34.46-.09.07-.18.16-.27.27-.07.09-.11.21-.16.37s-.07.37-.07.64v1.17h7.13v-1.17c.02-.27 0-.5-.07-.64-.07-.16-.16-.27-.27-.37Zm16.95-.02c-.09-.09-.21-.16-.34-.23-.14-.09-.25-.18-.37-.27-.09-.09-.16-.21-.23-.37-.05-.16-.07-.37-.07-.64V.29l-6.17.39v1.17c0 .27.02.48.09.66.09.16.18.27.3.37.11.09.23.16.37.23s.25.16.37.27c.11.09.21.21.27.37.09.16.14.37.14.64v8.29a5.56 5.56 0 0 0-3.22-1c-1.28 0-2.42.34-3.4 1.03s-1.71 1.64-2.26 2.88c-.53 1.23-.8 2.65-.8 4.25s.25 2.92.75 4.11c.5 1.17 1.21 2.08 2.12 2.74.94.66 1.99 1.01 3.18 1.01.85 0 1.62-.16 2.33-.5.71-.34 1.28-.82 1.71-1.42.11-.14.21-.3.3-.43l.23 2.03 3.4-.09 1.62-.02v-1.21c0-.27-.02-.48-.09-.64-.07-.16-.14-.27-.23-.37Zm-5.62-1.94c0 .34-.09.66-.27.96-.18.32-.41.57-.73.75s-.64.27-1.01.27c-.55 0-1.03-.21-1.42-.64-.37-.43-.69-1.05-.89-1.85s-.3-1.76-.3-2.88.09-2.06.3-2.86c.23-.82.53-1.44.94-1.9.39-.43.87-.66 1.39-.66.37 0 .71.09 1.03.3.32.18.55.41.69.73.18.3.27.62.27.96v6.81Zm21.38 1.96c-.09-.09-.21-.16-.34-.23-.23-.16-.39-.32-.5-.46-.11-.16-.16-.41-.16-.8V17.7c0-1.28-.25-2.38-.75-3.29s-1.26-1.6-2.26-2.06-2.22-.69-3.66-.69c-1.17 0-2.22.16-3.15.46s-1.67.71-2.19 1.26c-.5.53-.75 1.12-.75 1.78 0 .39.07.75.23 1.1.18.34.43.59.75.8.34.18.71.27 1.17.27s.82-.09 1.17-.3.57-.46.73-.8c.18-.34.27-.73.27-1.17 0-.39-.07-.75-.23-1.07.07-.02.16-.05.23-.07.39-.11.78-.16 1.17-.16.85 0 1.46.3 1.85.89.39.59.59 1.53.59 2.81v.48c-1.55.02-2.92.25-4.11.69-1.26.46-2.24 1.12-2.92 1.96-.66.85-1.01 1.83-1.01 2.99 0 .85.18 1.58.53 2.19.37.59.87 1.07 1.49 1.42.64.34 1.39.5 2.26.5.94 0 1.76-.21 2.51-.64a4.9 4.9 0 0 0 1.83-1.76c.07-.11.11-.21.18-.32l.16 2.38 3.66-.09 1.62-.02v-1.17c.02-.3 0-.53-.07-.66-.07-.16-.16-.27-.27-.37Zm-5.67-2.97c0 .48-.09.94-.3 1.33-.18.39-.41.69-.73.91-.3.23-.62.34-.96.34-.39 0-.71-.14-.96-.43-.25-.32-.37-.71-.37-1.23 0-.57.14-1.07.43-1.49.3-.43.71-.78 1.26-1.03.46-.21 1.01-.32 1.62-.34v1.94Zm15.6 2.08c-.32.07-.59.09-.87.09-.46 0-.82-.14-1.1-.39-.27-.3-.39-.78-.39-1.49v-8.04h3.4v-2.22H173v-6.1l-2.35.37c-.46.07-.82.16-1.05.27-.25.11-.41.27-.53.5-.09.23-.14.5-.14.87v2.06c0 .34-.05.59-.16.8-.09.18-.21.32-.37.43-.14.09-.34.18-.59.3-.23.09-.41.18-.59.3-.16.11-.3.27-.39.46-.09.21-.14.46-.14.75v1.19h1.53v8.57c0 1.03.18 1.92.57 2.63.37.71.91 1.26 1.6 1.62.69.34 1.46.53 2.35.53s1.71-.16 2.49-.46c.8-.32 1.53-.75 2.19-1.33l-1.07-2.06c-.34.14-.69.25-1.01.34Zm5.39-16.31c.39.21.82.3 1.3.3s.87-.11 1.28-.3c.39-.23.69-.53.89-.87.21-.39.3-.82.3-1.3s-.11-.89-.34-1.26c-.21-.39-.5-.66-.87-.87-.37-.23-.8-.34-1.26-.34-.5 0-.94.11-1.3.34-.37.21-.66.5-.89.87-.21.37-.3.8-.3 1.26 0 .5.09.94.3 1.3.21.37.53.64.89.87Zm5.07 17.23a.96.96 0 0 0-.3-.27c-.14-.07-.25-.14-.37-.23-.09-.09-.16-.21-.23-.37-.05-.18-.07-.39-.07-.66V11.75l-6.19.39v1.17c0 .27.02.48.09.64.07.14.14.27.23.39.11.09.23.16.37.23.11.07.21.16.3.27.11.07.21.21.27.39.07.16.09.34.09.59v7.7c0 .27-.02.48-.09.66-.07.16-.14.27-.23.37s-.21.16-.34.23c-.11.07-.23.16-.34.27-.09.09-.16.21-.23.37s-.09.37-.09.64v1.21h7.45V26.1c0-.27-.02-.48-.09-.64a.711.711 0 0 0-.23-.37Zm12.93-12.41c-1.1-.69-2.38-1.03-3.84-1.03s-2.72.34-3.84 1.03c-1.1.66-1.96 1.6-2.58 2.81-.62 1.19-.94 2.58-.94 4.18s.3 2.97.89 4.18a7.216 7.216 0 0 0 2.58 2.81c1.14.66 2.42 1.01 3.88 1.01s2.72-.32 3.84-1.01a6.98 6.98 0 0 0 2.63-2.81c.62-1.21.94-2.6.94-4.18s-.32-2.99-.94-4.18a6.803 6.803 0 0 0-2.63-2.81Zm-1.76 10.26c-.14.85-.41 1.49-.75 1.9-.34.39-.8.59-1.33.59s-.98-.21-1.35-.59c-.32-.43-.57-1.05-.75-1.9-.18-.87-.27-1.94-.27-3.24s.09-2.4.27-3.24c.18-.87.46-1.51.8-1.92.37-.43.8-.64 1.3-.64s.98.23 1.33.64c.34.41.59 1.05.75 1.92.18.85.27 1.92.27 3.24s-.09 2.38-.27 3.24Zm22.92 2.49c-.07-.16-.16-.27-.27-.37a.96.96 0 0 0-.3-.27c-.14-.07-.25-.14-.37-.23-.09-.09-.16-.21-.23-.37-.05-.18-.07-.39-.07-.66v-7.17c0-1.01-.21-1.85-.59-2.56-.37-.71-.91-1.23-1.62-1.6-.69-.37-1.49-.57-2.42-.57-1.19 0-2.26.3-3.18.89-.66.43-1.19.98-1.6 1.62l.07-2.44-5.6.39v1.21c0 .27.02.48.09.64.07.16.14.3.23.39.11.09.23.16.37.23.11.07.21.16.3.27.11.09.21.23.27.39.07.16.09.34.09.59v7.72c0 .27-.02.48-.09.66-.07.16-.14.27-.23.37s-.21.16-.34.23c-.11.07-.23.16-.34.27-.09.09-.16.21-.23.37s-.09.37-.09.64v1.17h7.13v-1.17c0-.27-.02-.48-.07-.64-.05-.16-.09-.27-.16-.37a.887.887 0 0 0-.23-.27c-.11-.07-.21-.14-.27-.23s-.11-.21-.16-.37c-.05-.18-.07-.39-.07-.66v-6.67c0-.43.09-.82.27-1.17s.43-.59.75-.75c.34-.21.71-.3 1.12-.3.55 0 .98.18 1.3.57.32.34.46.87.46 1.55v6.76c0 .37-.05.64-.14.8-.07.14-.18.3-.34.46-.09.07-.18.16-.27.27-.07.09-.11.21-.16.37s-.07.37-.07.64v1.17h7.13v-1.17c.02-.27 0-.5-.07-.64Z"/></svg>