<?xml version="1.0" encoding="UTF-8" standalone="no"?>
<!DOCTYPE svg PUBLIC "-//W3C//DTD SVG 1.1//EN" "http://www.w3.org/Graphics/SVG/1.1/DTD/svg11.dtd">
<svg xmlns="http://www.w3.org/2000/svg" version="1.1" viewBox="0.00 0.00 702.00 83.00">
<path fill="#ce1e2b" d="
  M 10.01 36.65
  C 10.56 37.19 10.51 37.94 10.97 38.64
  Q 16.18 46.63 24.63 47.66
  Q 31.76 48.53 37.86 45.71
  A 0.70 0.70 0.0 0 1 38.76 45.99
  L 44.85 56.63
  Q 45.15 57.15 44.61 57.43
  Q 33.84 62.96 23.26 60.17
  Q 9.78 56.62 3.67 44.44
  Q -0.85 35.45 0.93 25.78
  C 3.73 10.59 17.68 -0.78 33.33 1.19
  Q 34.29 1.31 33.32 1.39
  Q 18.72 2.58 11.52 15.27
  Q 5.94 25.08 9.71 36.16
  A 1.24 1.21 14.1 0 0 10.01 36.65
  Z"
/>
<path fill="#fba823" d="
  M 76.75 11.30
  Q 81.31 16.18 83.17 21.78
  Q 84.49 25.75 84.94 30.91
  Q 85.10 32.78 84.74 34.52
  C 84.33 36.53 84.59 38.59 83.60 40.48
  C 83.00 41.64 82.96 42.86 82.32 44.06
  Q 80.77 47.00 79.17 49.79
  Q 79.10 49.92 78.96 49.86
  L 78.96 49.85
  Q 78.83 49.79 78.89 49.66
  C 80.14 46.71 81.47 43.46 81.73 40.30
  Q 82.88 26.55 73.14 17.25
  Q 64.88 9.37 53.05 11.76
  Q 51.94 11.98 51.20 12.53
  Q 50.88 12.77 50.51 12.91
  C 45.48 14.85 41.91 19.70 40.02 24.57
  C 39.18 26.75 39.29 28.87 38.50 31.04
  Q 38.32 31.54 37.78 31.54
  L 25.82 31.54
  Q 25.33 31.54 25.06 31.13
  Q 24.68 30.56 25.14 29.97
  Q 25.46 29.57 25.49 29.05
  C 26.10 15.27 38.21 3.16 51.84 1.94
  Q 66.76 0.61 76.75 11.30
  Z"
/>
<path fill="#000000" d="
  M 296.20 56.58
  L 296.16 47.18
  Q 296.16 46.46 295.43 46.46
  L 281.79 46.45
  Q 281.14 46.45 281.14 45.79
  L 281.14 38.10
  Q 281.14 37.28 281.96 37.28
  L 305.72 37.29
  A 0.28 0.27 90.0 0 1 305.99 37.57
  L 306.00 61.70
  A 1.07 1.07 0.0 0 1 305.59 62.54
  Q 293.03 72.40 279.04 71.18
  Q 259.42 69.47 252.99 51.54
  Q 250.79 45.41 251.44 38.04
  C 253.10 19.12 269.43 7.94 287.69 10.74
  Q 296.77 12.14 303.58 18.06
  A 0.43 0.43 0.0 0 1 303.63 18.67
  L 298.00 25.48
  Q 297.37 26.23 296.65 25.57
  Q 290.15 19.61 280.58 19.95
  C 258.35 20.71 255.21 55.20 275.87 61.00
  Q 285.91 63.82 295.43 57.95
  A 1.61 1.60 -15.7 0 0 296.20 56.58
  Z"
/>
<path fill="#000000" d="
  M 126.85 70.28
  L 117.85 70.27
  A 0.67 0.67 0.0 0 1 117.18 69.60
  L 117.18 21.71
  A 0.67 0.67 0.0 0 0 116.51 21.04
  L 99.31 20.99
  A 0.67 0.67 0.0 0 1 98.65 20.33
  L 98.60 11.98
  A 0.67 0.67 0.0 0 1 99.27 11.31
  L 145.43 11.30
  A 0.67 0.67 0.0 0 1 146.10 11.98
  L 146.04 20.37
  A 0.67 0.67 0.0 0 1 145.37 21.03
  L 128.18 21.04
  A 0.67 0.67 0.0 0 0 127.51 21.71
  L 127.52 69.61
  A 0.67 0.67 0.0 0 1 126.85 70.28
  Z"
/>
<path fill="#000000" d="
  M 162.21 29.50
  Q 162.21 32.37 164.15 30.26
  Q 168.72 25.30 174.78 25.00
  Q 186.90 24.39 190.68 34.86
  Q 191.75 37.82 191.78 40.95
  Q 191.90 53.40 191.83 69.66
  Q 191.83 70.25 191.25 70.25
  L 182.49 70.27
  A 0.74 0.74 0.0 0 1 181.75 69.53
  Q 181.84 56.21 181.71 44.11
  C 181.64 37.83 177.48 33.54 170.97 34.25
  C 164.44 34.96 162.16 40.29 162.19 46.28
  Q 162.27 58.91 162.20 69.43
  A 0.86 0.86 0.0 0 1 161.34 70.28
  L 152.74 70.25
  A 0.51 0.51 0.0 0 1 152.23 69.74
  L 152.23 12.02
  A 0.74 0.74 0.0 0 1 152.98 11.28
  L 161.53 11.33
  A 0.70 0.70 0.0 0 1 162.22 12.03
  L 162.21 29.50
  Z"
/>
<rect fill="#000000" x="315.87" y="11.26" width="10.30" height="59.00" rx="0.92"/>
<path fill="#000000" d="
  M 398.04 64.27
  A 0.44 0.43 -68.1 0 0 397.30 64.59
  L 397.33 69.71
  A 0.55 0.54 89.5 0 1 396.79 70.27
  L 387.75 70.26
  A 0.51 0.50 -90.0 0 1 387.25 69.75
  L 387.25 12.02
  Q 387.25 11.29 387.98 11.29
  L 396.71 11.34
  Q 397.33 11.34 397.33 11.96
  L 397.33 31.02
  Q 397.33 32.83 398.54 31.48
  Q 406.47 22.60 417.76 25.72
  C 435.68 30.68 438.03 59.10 422.76 68.14
  Q 412.50 74.22 402.55 68.42
  C 400.80 67.40 399.47 65.69 398.04 64.27
  Z
  M 409.8853 62.5900
  A 14.50 12.91 89.9 0 0 422.7700 48.0675
  A 14.50 12.91 89.9 0 0 409.8347 33.5900
  A 14.50 12.91 89.9 0 0 396.9500 48.1125
  A 14.50 12.91 89.9 0 0 409.8853 62.5900
  Z"
/>
<rect fill="#000000" x="487.27" y="11.25" width="10.10" height="59.02" rx="0.57"/>
<path fill="#000000" d="
  M 552.74 37.54
  L 552.79 45.58
  A 0.72 0.72 0.0 0 1 552.07 46.31
  L 527.05 46.30
  A 0.72 0.72 0.0 0 0 526.33 47.02
  L 526.34 69.55
  A 0.72 0.72 0.0 0 1 525.62 70.27
  L 516.71 70.24
  A 0.72 0.72 0.0 0 1 515.99 69.52
  L 515.98 12.04
  A 0.72 0.72 0.0 0 1 516.70 11.32
  L 555.81 11.29
  A 0.72 0.72 0.0 0 1 556.53 12.01
  L 556.52 19.99
  A 0.72 0.72 0.0 0 1 555.80 20.71
  L 527.09 20.66
  A 0.72 0.72 0.0 0 0 526.37 21.38
  L 526.32 36.13
  A 0.72 0.72 0.0 0 0 527.04 36.85
  L 552.01 36.82
  A 0.72 0.72 0.0 0 1 552.74 37.54
  Z"
/>
<path fill="#000000" d="
  M 691.28 64.75
  Q 691.28 63.22 690.28 64.37
  Q 681.57 74.30 669.42 69.91
  C 657.80 65.72 653.82 52.31 656.66 40.97
  C 659.20 30.82 667.89 23.91 678.41 25.05
  Q 685.37 25.80 690.36 31.56
  Q 691.27 32.60 691.27 31.22
  L 691.26 11.93
  Q 691.26 11.36 691.82 11.35
  L 700.77 11.27
  Q 701.39 11.27 701.39 11.89
  L 701.39 69.66
  A 0.63 0.62 -0.0 0 1 700.76 70.28
  L 692.00 70.26
  Q 691.25 70.25 691.25 69.50
  L 691.28 64.75
  Z
  M 678.7560 62.5798
  A 14.52 12.96 89.7 0 0 691.6398 47.9921
  A 14.52 12.96 89.7 0 0 678.6040 33.5402
  A 14.52 12.96 89.7 0 0 665.7202 48.1279
  A 14.52 12.96 89.7 0 0 678.7560 62.5798
  Z"
/>
<path fill="#000000" d="
  M 208.92 51.58
  Q 207.32 51.58 207.78 53.11
  Q 210.64 62.73 220.01 62.91
  Q 227.09 63.05 231.83 57.98
  Q 232.19 57.59 232.58 57.95
  L 237.79 62.66
  Q 238.16 62.99 237.84 63.37
  Q 230.88 71.33 220.06 71.29
  C 208.34 71.24 199.43 63.59 197.73 51.92
  C 196.66 44.53 198.77 36.56 203.97 31.23
  C 210.69 24.35 221.28 23.01 229.52 27.57
  C 237.71 32.10 240.19 41.28 240.26 50.38
  A 1.20 1.19 -0.2 0 1 239.06 51.58
  L 208.92 51.58
  Z
  M 208.46 44.99
  L 229.32 44.89
  A 0.49 0.49 0.0 0 0 229.81 44.39
  L 229.81 44.18
  A 10.92 10.86 -0.3 0 0 218.83 33.38
  L 218.83 33.38
  A 10.92 10.86 -0.3 0 0 207.97 44.30
  L 207.97 44.51
  A 0.49 0.49 0.0 0 0 208.46 44.99
  Z"
/>
<path fill="#000000" d="
  M 380.0557 44.8622
  A 23.63 23.25 -7.9 0 1 359.8456 71.1393
  A 23.63 23.25 -7.9 0 1 333.2443 51.3578
  A 23.63 23.25 -7.9 0 1 353.4544 25.0807
  A 23.63 23.25 -7.9 0 1 380.0557 44.8622
  Z
  M 357.9675 62.5781
  A 14.48 13.54 84.7 0 0 370.1121 46.9093
  A 14.48 13.54 84.7 0 0 355.2925 33.7419
  A 14.48 13.54 84.7 0 0 343.1479 49.4107
  A 14.48 13.54 84.7 0 0 357.9675 62.5781
  Z"
/>
<path fill="#000000" d="
  M 467.54 43.89
  Q 467.18 35.22 458.74 34.37
  Q 451.46 33.64 444.16 36.91
  Q 443.88 37.03 443.78 36.74
  L 441.30 29.10
  Q 441.24 28.92 441.42 28.83
  C 449.88 24.81 462.68 22.93 470.80 28.69
  C 475.93 32.32 477.38 38.40 477.37 44.53
  Q 477.35 57.40 477.36 69.71
  A 0.56 0.56 0.0 0 1 476.80 70.28
  L 467.77 70.25
  A 0.46 0.46 0.0 0 1 467.31 69.77
  L 467.44 66.56
  A 0.68 0.68 0.0 0 0 466.30 66.03
  Q 459.19 72.63 449.39 70.85
  Q 438.93 68.96 437.47 59.37
  C 436.66 54.01 438.86 48.36 443.64 45.56
  C 450.08 41.78 459.97 42.34 466.78 44.48
  A 0.59 0.59 0.0 0 0 467.54 43.89
  Z
  M 452.97 63.24
  C 460.45 64.68 468.54 60.94 467.62 52.25
  Q 467.56 51.64 466.98 51.45
  C 462.62 49.97 455.19 49.01 450.76 51.30
  C 444.89 54.33 446.89 62.07 452.97 63.24
  Z"
/>
<path fill="#000000" d="
  M 620.39 29.28
  Q 620.36 32.57 622.53 30.09
  Q 627.71 24.18 636.78 25.12
  C 644.99 25.98 649.89 32.97 649.95 40.96
  Q 650.06 54.53 649.98 70.00
  A 0.27 0.27 0.0 0 1 649.71 70.27
  L 640.47 70.27
  A 0.58 0.58 0.0 0 1 639.89 69.69
  Q 639.91 57.02 639.89 44.41
  C 639.88 39.01 636.82 34.42 631.08 34.20
  C 623.00 33.87 620.24 39.91 620.34 47.02
  Q 620.50 58.71 620.36 69.70
  A 0.59 0.59 0.0 0 1 619.77 70.28
  L 611.03 70.26
  Q 610.31 70.26 610.31 69.53
  L 610.31 26.75
  A 0.84 0.84 0.0 0 1 611.14 25.91
  L 619.62 25.88
  A 0.80 0.79 0.4 0 1 620.42 26.68
  L 620.39 29.28
  Z"
/>
<path fill="#000000" d="
  M 589.99 65.71
  A 0.77 0.77 0.0 0 0 588.63 65.22
  Q 583.49 71.52 575.26 71.17
  C 565.82 70.77 560.52 63.92 560.46 54.96
  Q 560.37 41.21 560.42 26.59
  A 0.70 0.69 0.0 0 1 561.12 25.90
  L 569.80 25.90
  A 0.79 0.79 0.0 0 1 570.58 26.70
  Q 570.48 37.37 570.55 48.33
  C 570.57 51.68 570.43 54.43 571.90 57.46
  C 573.31 60.35 576.25 61.85 579.46 61.92
  C 587.72 62.10 590.10 56.07 590.01 48.80
  Q 589.87 37.61 590.01 26.65
  A 0.74 0.74 0.0 0 1 590.74 25.92
  L 599.30 25.89
  A 0.90 0.90 0.0 0 1 600.20 26.79
  L 600.20 69.28
  A 0.98 0.98 0.0 0 1 599.22 70.26
  L 590.73 70.26
  A 0.77 0.77 0.0 0 1 589.96 69.48
  L 589.99 65.71
  Z"
/>
<path fill="#045ba9" d="
  M 44.63 83.00
  L 38.80 83.00
  Q 21.85 80.21 14.75 65.43
  Q 13.93 63.72 15.06 65.24
  Q 26.53 80.69 46.15 75.72
  Q 48.12 75.22 51.87 72.59
  Q 59.57 67.20 60.47 58.76
  C 61.30 51.03 57.39 43.90 51.24 39.26
  A 1.27 1.27 0.0 0 1 50.90 37.62
  L 56.66 27.41
  A 0.77 0.77 0.0 0 1 57.76 27.15
  Q 71.14 36.12 71.99 52.09
  Q 72.10 54.06 71.76 55.92
  C 71.44 57.66 71.47 59.26 70.92 60.98
  Q 64.78 79.99 44.63 83.00
  Z"
/>
</svg>
