<?xml version="1.0" encoding="UTF-8" standalone="no"?>
<svg xmlns="http://www.w3.org/2000/svg" width="800" height="800" version="1.0">
  <path d="M374.62778 772.1504c-.34601-15.31729-.90173-37.1689-1.23493-48.55915l-.60583-20.70953h14.46219c7.9542 0 23.98934-.29598 35.63364-.65774l21.17146-.65775v12.29403h-16.3509c-8.99299 0-21.82418.29359-28.51376.65241l-12.16287.65239v28.88163l26.5128-.73462 26.5128-.73461v11.96726l-26.01256.73463-26.01256.73462v31.82195l29.51425-.71113 29.51425-.71112v12.28086l-17.25833.00283c-9.49209.00155-25.64683.29527-35.89943.65273L375.2569 800l-.62912-27.8496zm84.09107 13.5925c1.39939-13.22807 7.05158-64.8524 9.15117-83.58238.44443-3.96469 1.00797-7.39167 1.25234-7.61554.24434-.22385 3.45882-1.0844 7.14328-1.91231 6.12365-1.37602 6.82127-1.36484 8.12262.13016.78299.89949 6.73694 9.49511 13.231 19.10134s15.03097 22.18166 18.9709 27.9454c3.93995 5.76374 11.08389 16.21336 15.87543 23.22138 5.69401 8.32795 8.26545 12.89187 7.42313 13.17489-.70882.23817-3.23035.92921-5.6034 1.53563-2.37305.60645-4.9135 1.33186-5.64547 1.61207-.8571.3281-4.26566-3.9497-9.57551-12.01748-7.70052-11.70012-8.41745-12.48545-10.8625-11.89869-1.43981.34552-6.66978 1.70105-11.62218 3.01228-4.95239 1.31121-12.21931 3.11144-16.14871 4.00049l-7.14438 1.61645-.71778 10.50531c-.39479 5.77792-1.00784 12.52811-1.36235 15.00041l-.64457 4.4951-6.52984 1.58805-6.52983 1.58804 1.21665-11.5006zm31.98713-38.13814c8.86435-2.2469 12.10168-3.46072 11.58838-4.34499-.39176-.67489-5.66467-8.90179-11.71758-18.28199-12.82557-19.87579-11.42229-20.47736-13.93276 5.97271-2.00126 21.08496-2.00067 21.2123.09328 20.41072.91741-.35118 7.20331-2.04159 13.96868-3.75645zm-157.29924 47.47406-6.09709-1.4434 5.38025-21.55655c2.95914-11.85611 5.17775-21.75857 4.93023-22.00548-.50836-.50712-47.97577-12.31246-48.15794-11.97708-.06458.1189-2.50057 9.91298-5.41329 21.76462l-5.29588 21.54846-6.13497-1.41386c-3.37424-.77764-6.27741-1.55598-6.45151-1.72965-.57568-.57427 22.21302-92.08527 23.16926-93.03918.238-.23743 3.20908.14035 6.60237.83953 5.46904 1.12686 6.10492 1.50211 5.59974 3.30456-.31345 1.11835-1.29497 5.17721-2.18114 9.0197-.88618 3.84249-2.8452 11.70942-4.35338 17.48206l-2.74212 10.4957 23.95008 5.84373c13.22005 3.22564 24.29226 5.45411 24.71383 4.97407.42006-.4783 2.6948-8.85149 5.05497-18.60706 2.36019-9.75557 4.68832-17.98222 5.17363-18.28142 1.37309-.84655 11.86142 2.49933 11.86142 3.78391 0 .62921-3.39686 14.87631-7.5486 31.66022-4.15172 16.78391-9.21667 37.35951-11.25543 45.72355-2.03877 8.36404-3.93196 15.17352-4.20709 15.13216-.27514-.04134-3.24394-.7247-6.59734-1.51859zm198.87709-68.79047c-11.65844-23.35558-21.19572-42.78013-21.19396-43.16567.00176-.38555 2.59051-1.93131 5.75278-3.43502l5.74957-2.73403 18.86971 37.66579c10.37834 20.71617 18.9808 37.78885 19.11658 37.93925.13579.15042 9.6531-4.44723 21.14961-10.217 11.49651-5.76975 21.3758-10.49633 21.95398-10.50349 1.44884-.01794 5.75718 9.06982 4.75822 10.03669-1.11657 1.08067-53.04482 26.87816-54.10356 26.87816-.47068 0-10.39449-19.10911-22.05293-42.46468zm61.35056-25.65225c-12.52801-18.80076-23.07235-34.51242-23.43186-34.9148-.35952-.40237-6.70592 3.31464-14.10312 8.26001l-13.44945 8.9916-1.66789-2.20579c-.91732-1.21318-2.40031-3.44268-3.29551-4.95445l-1.62763-2.74864 32.59429-21.66106c18.09633-12.02621 32.95085-21.26536 33.39592-20.77145.44091.48928 1.97571 2.65672 3.41069 4.81652l2.60903 3.9269-12.72383 8.42356c-6.9981 4.63295-13.09296 8.75827-13.54411 9.1674-.45116.40912 9.01656 15.51104 21.03936 33.55984 12.02283 18.0488 22.57341 33.93379 23.44577 35.29998 1.56379 2.44902 1.51638 2.52978-3.36813 5.73878-2.72482 1.79015-5.30323 3.25482-5.72978 3.25482-.42656 0-11.02574-15.38245-23.55375-34.18322zm-441.30743 14.61648c-2.70373-1.91381-5.02938-3.79889-5.16814-4.18906-.13877-.39017 3.15544-5.64683 7.32046-11.68146 4.165-6.03463 10.03956-14.56505 13.05458-18.95647 3.01501-4.39142 8.44935-12.25107 12.07629-17.46588 3.62694-5.21481 9.51733-13.74814 13.08975-18.96296 3.57242-5.21481 7.06212-10.08905 7.75489-10.83165 1.28867-1.38136 8.15258 2.90684 36.49954 22.80291 5.22752 3.66907 11.8244 8.25037 14.65973 10.18066l5.15513 3.50964-3.02244 4.63509c-2.86372 4.39167-5.0111 5.69705-6.20411 3.77142-.2943-.47504-6.28624-4.75645-13.31545-9.51427-7.02919-4.75781-16.24818-11.10394-20.48665-14.1025l-7.70631-5.45196-2.39732 3.23913c-1.31853 1.78151-5.14652 7.14567-8.50666 11.92035l-6.10933 8.68123 7.70885 5.37461c4.23988 2.95602 12.88636 8.88049 19.21442 13.16546 6.32805 4.28499 11.66151 7.92128 11.85211 8.08065.55188.46143-5.85961 9.41249-6.74201 9.41249-.43816 0-5.48929-3.25614-11.22471-7.23586-5.73545-3.97972-12.44625-8.56806-14.9129-10.19631-2.46664-1.62824-6.20585-4.27429-8.30934-5.88011-4.53434-3.46153-3.66743-4.10512-13.25259 9.8386-3.77342 5.48928-8.94229 12.98548-11.48636 16.65822l-4.62559 6.67771-4.91584-3.47968zm521.67168-24.09795c-.18341-.4117-3.93523-3.91103-8.33735-7.7763-4.40213-3.86527-13.85669-12.16398-21.01014-18.44157-7.15346-6.27759-13.50089-11.87299-14.10541-12.43422-.60453-.56123-7.02013-6.13857-14.25689-12.39413-7.23676-6.25555-13.15775-11.56445-13.15775-11.79755 0-.2331 1.86184-2.62648 4.13741-5.31861l4.13742-4.89479 3.11608 2.58027c1.71386 1.41916 5.14207 4.44 7.61827 6.713 2.47619 2.27299 7.82491 7.03732 11.88603 10.58743l7.38383 6.45471 4.96886-5.45783c2.73287-3.00179 8.8647-9.94787 13.6263-15.43572 4.76159-5.48785 9.89346-11.32645 11.40413-12.97466 1.51069-1.6482 2.74879-3.25364 2.75134-3.56762.00254-.31398-6.30551-6.09463-14.01789-12.84588-7.71239-6.75123-14.27134-12.67661-14.57546-13.16748-.30412-.49088 1.38547-3.05896 3.75464-5.70683l4.30758-4.81434 12.51896 11.03063c6.88544 6.06685 12.74408 11.27221 13.01921 11.56745.27513.29526 3.87623 3.45563 8.00246 7.02306 4.1262 3.56743 8.02174 6.97178 8.65673 7.56526.635.59346 7.71342 6.83309 15.72983 13.86585l14.57529 12.78681-2.93445 3.69604c-1.61394 2.03282-3.61774 4.26175-4.45288 4.95317-1.68983 1.399-1.9449 1.22135-15.51907-10.80886-7.68504-6.81091-13.97282-12.28437-17.66877-15.38049-2.09184-1.75234-2.28872-1.57381-18.00869 16.33089-8.74155 9.95644-16.02351 18.44331-16.1821 18.85971-.15861.41641 5.01889 5.41329 11.50555 11.1042 6.48665 5.69091 12.27878 10.80429 12.87139 11.3631.59258.5588 2.75319 2.48125 4.80131 4.27213l3.72387 3.25611-4.20757 4.97779c-4.10844 4.86052-5.38426 5.75062-6.06207 4.22927zM113.89492 676.2118c-6.64376-2.30366-14.377425-7.7374-20.080112-14.10851-18.009892-20.12085-16.457543-45.64287 4.01911-66.07778 21.147952-21.10486 48.186782-23.43637 67.507722-5.82107 14.87855 13.56511 20.2247 31.524 14.52202 48.78274-5.33079 16.13321-20.39886 30.7095-37.89737 36.66046-7.96578 2.70903-21.1229 2.97346-28.07137.56416zm28.51377-15.30865c8.56464-4.19797 19.04802-14.13047 23.11109-21.89665 2.56965-4.91166 2.8734-6.48696 2.88665-14.97074.01268-8.11664-.33866-10.17172-2.44077-14.27647-4.62282-9.02692-14.70769-16.43384-24.60586-18.07202-14.6114-2.41823-35.57972 10.5511-43.585886 26.95876-2.925085 5.9946-3.354434 7.85654-3.314106 14.37218.077882 12.58306 6.767082 22.93553 18.713832 28.96227 5.74788 2.89961 6.83614 3.10977 14.2278 2.74757 6.6141-.32409 9.21991-.98824 15.00725-3.8249zM22.426638 533.62037l-1.790688-7.57721 3.358599-3.55535c1.84723-1.95544 4.033926-4.3035 4.859324-5.21792.825399-.9144 6.678224-7.23747 13.006279-14.05123 6.328055-6.81378 14.624138-15.76473 18.43574-19.89101 3.811602-4.12629 9.439319-10.20234 12.506037-13.50232 10.700248-11.51416 10.995494-10.83536-3.063118-7.04247-6.804145 1.83571-21.600628 5.91047-32.881074 9.05505-29.4707014 8.21537-28.0159711 7.87735-29.1278403 6.76818-.5440934-.54277-1.5866471-3.24593-2.3167861-6.00704l-1.3275253-5.02016 7.6318497-2.2321c4.197517-1.22766 16.411088-4.62293 27.141268-7.54505 40.604329-11.05768 55.576077-15.21058 57.100465-15.83868 1.268102-.52249 1.935128.79966 3.435259 6.8092l1.861593 7.45759-7.937426 8.76266c-4.365588 4.81946-8.612757 9.48811-9.438157 10.3748-2.315388 2.48731-9.529156 10.36684-20.509901 22.40279-5.502656 6.03145-11.880515 12.99285-14.173018 15.46978-2.292505 2.47693-5.331472 5.76175-6.753261 7.29959-2.522071 2.72792-3.371279 4.29379-1.804877 3.32806.429106-.26455 10.67155-3.19347 22.760988-6.50871 12.089437-3.31523 28.491153-7.8214 36.448258-10.01368 7.957094-2.1923 14.542684-3.89339 14.634634-3.78022.48706.59958 3.48483 11.94319 3.22268 12.19472-.17013.16326-6.16215 1.87089-13.31561 3.79475-20.745426 5.5793-52.988185 14.44329-66.169 18.19079-6.67861 1.89882-12.56167 3.45241-13.073468 3.45241-.511797 0-1.736349-3.40975-2.721224-7.57722zm722.364452 6.72708c-.28969-.46758.16681-3.28208 1.01444-6.25446l1.54113-5.40429h5.86744c4.88097 0 6.59282-.50061 10.18194-2.97753 9.36725-6.46449 14.44999-24.63371 9.31693-33.30516-4.18291-7.06632-15.31992-9.5578-20.03536-4.48212-1.33725 1.43941-6.33802 9.34743-11.11284 17.57341-10.0126 17.24956-12.00728 19.84681-17.87841 23.27915-12.04501 7.04168-29.7594 1.69948-36.35437-10.96354-6.9968-13.43452-1.4268-41.53632 10.38574-52.39827 7.45486-6.85495 15.73954-9.74608 24.72031-8.62672 7.96982.99333 8.24602 1.33735 6.22037 7.74782l-1.72043 5.44455-5.26403-.43547c-7.44043-.61551-11.70216 1.11904-16.88885 6.87385-8.50849 9.44047-12.07872 28.18922-6.77936 35.60102 3.06887 4.29215 7.34381 6.38818 13.03895 6.39308 4.28406.0037 4.98681-.37349 9.14292-4.90719 2.4762-2.70116 8.06326-11.0676 12.41571-18.5921 8.65546-14.96356 12.80913-19.7389 19.33009-22.22322 8.39172-3.19704 20.31817.51323 27.64095 8.59896 6.70586 7.40453 8.69334 16.18912 6.19608 27.3865-3.28581 14.73319-11.25249 26.75925-20.28546 30.62181-4.65511 1.99056-19.64011 2.75084-20.69389 1.04992zm-514.84014-2.81092c-18.12054-2.86217-30.89343-7.50459-43.8782-15.94791-38.18999-24.83295-54.50056-72.1978-39.98284-116.10754 4.04945-12.2478 11.8021-25.1815 21.50651-35.87913 5.43782-5.99438 13.31481-12.12371 40.49135-31.50757 6.15686-4.39142 14.93767-10.67914 19.5129-13.9727 4.57524-3.29357 13.07522-9.35673 18.88883-13.47368 5.81362-4.11695 14.26297-10.19183 18.77634-13.49971 4.51337-3.30788 13.30265-9.5956 19.53176-13.9727 6.22909-4.37711 14.1079-10.01366 17.50844-12.52568 3.40055-2.51203 18.78891-13.55703 34.19635-24.54444 15.40744-10.98742 35.34842-25.25364 44.3133-31.70274 9.73727-7.00472 16.88639-11.50105 17.75678-11.16786 2.8852 1.10446 34.57102 24.79007 34.27716 25.62267-.31693.89795-8.60419 7.11084-23.89682 17.91525-5.05023 3.56803-13.82875 9.85574-19.50785 13.9727-8.81639 6.39128-32.1183 23.07871-46.7083 33.44969-2.32832 1.65503-11.11023 7.94275-19.51534 13.9727-8.40512 6.02994-17.18436 12.31766-19.50942 13.97269-2.32506 1.65505-11.1043 7.94277-19.50942 13.97271-8.40512 6.02995-17.18436 12.31551-19.50942 13.96791-2.32506 1.65239-10.53042 7.50899-18.23414 13.01465-7.70372 5.50566-20.1755 14.41794-27.71506 19.80506-17.58321 12.56344-23.79925 18.82052-28.85868 29.04919-3.88037 7.84496-6.95693 19.32052-6.95693 25.94931 0 6.6121 3.07291 18.09784 6.95601 25.99971 6.96022 14.16363 20.09124 24.97787 35.75477 29.44635 6.61892 1.88824 11.33483 1.94182 170.89234 1.94182 159.5575 0 164.27341-.05358 170.89233-1.94182 20.76157-5.92285 36.78075-23.19655 41.10563-44.32475 1.99109-9.72704 2.00186-12.78277.07779-22.07518-1.76435-8.5209-4.47967-15.12123-8.83783-21.48277-5.64851-8.24501-7.17651-9.47886-48.6633-39.29476-16.88646-12.13604-33.59819-24.16155-51.02463-36.71657-7.97886-5.74845-20.02958-14.41152-26.7794-19.2513l-12.27238-8.79959 3.76827-2.69671c18.94268-13.55599 32.55678-22.98759 33.18158-22.98759.41505 0 4.87306 3.03159 9.90668 6.73684 5.03363 3.70526 14.79834 10.77895 21.69935 15.71929 6.90101 4.94035 18.15338 13.02455 25.00526 17.96491 6.85189 4.94034 18.21287 13.12807 25.24664 18.19494 7.03378 5.06686 18.71194 13.49806 25.95151 18.73597 17.91368 12.96082 28.12968 24.16165 35.75534 39.20221 12.80297 25.2521 14.16387 56.41552 3.6117 82.70426-11.03759 27.49802-33.91584 48.92868-62.03447 58.10931-16.0769 5.24903-11.59982 5.13002-187.47149 4.98356-89.75879-.07476-164.32334-.3137-165.699-.531zm4.93399-65.20419c-10.76162-1.83874-21.0769-9.80081-25.86079-19.96121-3.54375-7.52652-3.71021-20.99367-.34948-28.27427 3.84871-8.33774 7.7742-12.08862 27.03675-25.83416 10.31325-7.35941 36.53495-26.11737 58.27044-41.68435 21.73549-15.56697 44.02125-31.51324 49.52391-35.43615 5.50265-3.9229 22.83602-16.32913 38.51859-27.56939 15.68257-11.24026 38.08235-27.28286 49.77728-35.65023l21.26352-15.2134 16.2546 11.66989c8.94002 6.41844 17.2894 12.46714 18.55417 13.44156l2.29958 1.77167-13.75155 9.7988c-7.56334 5.38935-16.70206 11.909-20.30826 14.48811-3.6062 2.57911-8.34538 5.94753-10.53149 7.48537-2.18613 1.53785-10.29686 7.28733-18.02386 12.77659-7.727 5.48928-15.84313 11.23875-18.03586 12.77659-2.19273 1.53786-6.94392 4.90628-10.55822 7.48539-3.61428 2.5791-31.75287 22.61894-62.53019 44.53296-30.77729 21.91403-59.70004 42.57366-64.27272 45.91031l-8.31399 6.06663 66.09188.25664c36.35053.14114 95.91877.14114 132.37387 0l66.282-.25664-8.5041-6.21463c-4.67726-3.41805-25.83747-18.64229-47.02271-33.83166-72.39842-51.9082-68.56491-49.1094-67.9598-49.61682 1.10188-.92402 31.76596-22.51459 34.16029-24.05224 3.14623-2.02054 2.19031-2.54139 22.7942 12.41968 25.01156 18.1616 32.97546 23.91595 44.28862 32.001 6.47511 4.62748 17.36947 12.45571 24.20967 17.39606 6.84021 4.94035 18.13907 13.02455 25.10857 17.9649 19.44391 13.78288 22.29506 16.18874 25.96238 21.90776 4.36933 6.81374 5.87422 12.92864 5.26661 21.40015-.96447 13.44691-9.47078 25.36079-21.59775 30.24964l-5.69101 2.29426-160.07727.14106c-88.04251.0776-162.13405-.21035-164.64788-.63987zm553.77541-16.69054-4.06228-.3728.30093-5.69065c.16552-3.12985.75546-13.1132 1.31095-22.1852.55552-9.07199 1.01003-19.22363 1.01003-22.55918v-6.06466l-7.65458-.64546c-4.21002-.35502-10.73817-.64549-14.507-.64549-6.78395 0-6.85344.02743-6.95327 2.74464-.05546 1.50955-.61823 13.07446-1.25061 25.6998l-1.14975 22.95515-5.90451.30383-5.9045.30384.66293-14.27654c.3646-7.8521.94664-19.73805 1.29341-26.41323l.6305-12.1367-5.39375-.54734c-2.96655-.30103-10.23359-.76522-16.14893-1.03151l-10.7552-.48419v4.38058c0 7.02829-1.95759 44.50886-2.56723 49.15272l-.55683 4.24172h-11.18241l.59272-13.22417c.85032-18.97113 2.91622-58.1151 3.07452-58.2549.07378-.06514 6.88741.24526 15.1414.6898 8.25398.44455 29.86441 1.5592 48.02318 2.47704 18.15877.91781 33.08841 1.73021 33.17701 1.80533.28266.23969-2.5625 55.7377-3.24328 63.26323-.53088 5.86859-.96319 7.20292-2.28786 7.06149-.89833-.0959-3.46133-.34212-5.69559-.54715zM82.879954 435.81392c-11.599455-4.48984-42.666263-16.22299-68.533084-25.8832L.34010841 404.69975v-15.55347l8.50410539-2.89506c4.6772582-1.59228 20.2097562-7.18893 34.5166642-12.43699 14.306905-5.24805 27.813426-10.11063 30.014488-10.80572 2.201063-.69509 8.391551-2.86048 13.756641-4.81197l9.754709-3.54814v14.41977l-8.253984 2.84548c-4.539691 1.56501-10.842734 3.75082-14.006762 4.85735l-5.752776 2.01187v38.32769l13.756641 5.01203 13.756641 5.01204.295833 6.62994c.220393 4.93929-.034733 6.61375-1.000483 6.5664-.712976-.03496-6.473817-2.06763-12.801872-4.51705zm-26.012557-37.94331c0-11.25165-.285391-14.46973-1.250604-14.10186-.687832.26216-9.579624 3.27455-19.759539 6.6942-10.179914 3.41965-18.915013 6.46576-19.411331 6.76912-.856053.52325 36.534515 14.97405 39.17087 15.13887.946982.05919 1.250604-3.4612 1.250604-14.50033zm730.517173-26.76977c-2.37924-16.63402-3.47498-24.02958-3.58676-24.20817-.06339-.10129-5.73494.68684-12.60342 1.7514-6.86851 1.06456-20.14188 3.07489-29.49639 4.46739-9.35452 1.39251-22.57664 3.43312-29.3825 4.53468-6.80585 1.10158-12.51965 1.85782-12.69734 1.68057-.17768-.17726-.46209-3.21297-.632-6.74605l-.30893-6.42377 8.00386-1.20675c12.62598-1.90361 54.07823-8.20807 64.39033-9.79309 5.15007-.7916 9.61043-1.68534 9.91191-1.98609.30149-.30076-.00578-4.25636-.68282-8.79026-.67704-4.53388-1.71783-11.50498-2.31285-15.49132-.59503-3.98635-.89972-7.42595-.67708-7.64355.22265-.21761 2.8789-.54903 5.90277-.7365l5.49796-.34086 2.17444 14.47173c1.19595 7.95945 3.79317 25.2069 5.77161 38.32766s3.47825 23.95703 3.33291 24.08059c-.14534.12355-2.78185.64832-5.85889 1.16614l-5.59462.94148-1.15219-8.05523zM5.8427648 363.20665c-3.026461-.47827-5.63927787-.99614-5.80625966-1.15084-.3305433-.30624 1.59533276-11.18519 5.30192536-29.94973 1.301168-6.58713 3.5402585-18.26432 4.9757565-25.94931 3.380818-18.09931 4.011073-20.9774 4.570458-20.87121.254489.0483 2.881552.40792 5.837917.79913l5.375208.71132-.567765 3.19306c-.312271 1.75618-1.548623 8.35797-2.747448 14.67063-1.198825 6.31266-2.236631 12.12169-2.306236 12.90894-.132538 1.49907-.519261 1.41178 44.895181 10.13254 11.555579 2.21898 24.853699 4.77389 29.551377 5.67759l8.541231 1.64307-1.21246 5.86923c-.66684 3.22807-1.45594 6.11214-1.75355 6.40901-.29762.29689-9.448389-1.15632-20.335061-3.22935-51.215145-9.75232-55.230961-10.50567-59.332591-11.13041l-3.521252-.53634-2.981887 15.83612-2.981888 15.83612-5.5026562-.86957zM701.88574 315.10627c-8.54797-3.12957-15.17015-9.64918-20.24161-19.92804-4.45824-9.03601-6.19995-19.243-4.62149-27.0836 2.57457-12.78854 9.65877-19.57447 27.81237-26.64138 16.21872-6.31368 34.03836-13.10056 45.11183-17.18151l9.24932-3.40869 1.57077 3.72291c2.98103 7.06538 2.94407 8.76977-.2168 10.00151-1.56443.60962-12.52408 4.75139-24.35479 9.20389-35.62956 13.40928-35.17175 13.20641-40.36105 17.88446-4.47481 4.03391-6.66293 9.21393-6.65188 15.74725.01667 9.84886 6.4856 20.751 14.45584 24.36259 7.9396 3.59768 12.90596 2.55046 43.06216-9.08015 24.26116-9.35703 33.94882-12.98686 34.67494-12.9922 1.12981-.00834 4.75327 11.90996 3.79966 12.49789-.49661.30617-5.5297 2.29483-11.18465 4.41922-5.65496 2.12441-18.16054 6.84958-27.79019 10.50041-9.62965 3.65081-19.53443 7.27819-22.01062 8.06085-5.65355 1.78694-17.31175 1.74229-22.30381-.08541zM64.371019 293.39526c-24.761954-8.30093-45.180159-15.19632-45.373788-15.32309-.499137-.32682 2.936219-10.66173 3.889166-11.70015.434471-.47344 21.254931 5.98339 46.267691 14.34851l45.477742 15.20931-2.07316 6.36103c-1.14024 3.49856-2.31904 6.32411-2.61955 6.27899-.3005-.04511-20.806147-6.87369-45.568101-15.1746zm21.010143-20.54603c-20.54051-5.90859-37.470343-21.90144-41.460121-39.16552-4.576204-19.80158 7.378089-43.68041 26.452876-52.8399 6.563991-3.15195 7.662465-3.36478 17.508452-3.39198 8.265569-.02284 11.930006.44622 17.189151 2.20023 19.29912 6.43659 35.00842 22.00139 38.81554 38.45849 1.24496 5.38165 1.24287 12.95677-.00515 18.68174-2.64339 12.12583-14.14667 27.92368-23.98657 32.94156-10.13685 5.16931-23.256926 6.35358-34.514178 3.11538zm28.659918-14.67275c15.34444-7.7567 22.25459-26.39097 15.46549-41.705-7.07538-15.95978-30.817874-28.76956-47.480671-25.61721-10.642095 2.01334-17.996659 7.88264-23.271899 18.57212-7.44249 15.08107-1.219067 32.87441 15.166954 43.36372 14.135421 9.04863 28.942766 11.03661 40.120126 5.38637zm539.1422-24.48703c-1.72978-2.80442-2.89692-5.34648-2.59366-5.64901.30328-.30254 6.97-4.71021 14.81493-9.79484 46.08982-29.8727 54.78306-35.65588 54.78306-36.44439 0-.48027-3.88396-6.81106-8.63103-14.06844-4.74708-7.25736-8.13852-13.35898-7.53656-13.55915.60197-.20017 2.70505-1.45424 4.67354-2.78684 1.96847-1.3326 3.89671-2.41586 4.28498-2.40724.38826.0086 3.25165 3.93843 6.36308 8.73293 3.11144 4.79451 9.45094 14.55587 14.08779 21.69193 17.00719 26.17386 21.40339 32.96021 22.0823 34.08825.65586 1.08971-6.89823 6.33279-9.12409 6.33279-.52633 0-4.72323-5.83229-9.32643-12.96064-5.50035-8.51762-8.83782-12.78993-9.73568-12.46269-.75142.27386-5.02849 2.88859-9.5046 5.81049-4.4761 2.92191-11.515 7.48478-15.64199 10.1397-4.12698 2.65493-13.35645 8.6379-20.5099 13.29549-20.97089 13.65408-23.36432 15.14059-24.37796 15.14059-.5295 0-2.378-2.29452-4.10778-5.09893zm-496.68104-30.11643c-2.15332-2.31418-17.01049-17.62306-33.01594-34.01969-16.00543-16.39665-29.217202-30.10643-29.359483-30.46618-.14228-.35976 2.175178-3.05188 5.149905-5.98252l5.408598-5.32843 43.86785 11.01559c24.12732 6.05856 44.00783 10.87594 44.17891 10.70527.17109-.17066-6.85991-7.65869-15.62441-16.64006-24.35786-24.96053-36.69995-37.971207-36.69995-38.688012 0-.357654 1.96622-2.422318 4.36937-4.588145l4.36938-3.937867 17.04791 17.438234c27.89931 28.5381 46.12413 47.33981 48.17711 49.70217 1.92884 2.21952 1.9287 2.21998-2.00097 6.26544-2.16147 2.22518-4.71205 4.47206-5.66795 4.99308-1.24115.67647-8.6776-.75529-26.01256-5.00831-13.35101-3.27559-32.73512-8.02545-43.07582-10.55527-10.3407-2.52981-19.57015-4.87277-20.5099-5.20657-.93975-.33379 3.91907 5.12199 10.79739 12.12397 6.87833 7.00198 14.53202 14.84707 17.00822 17.43352 2.47619 2.58645 9.21598 9.49747 14.97731 15.35782l10.47513 10.65518-4.43043 4.50329c-2.43672 2.47682-4.67434 4.48797-4.97248 4.46921-.29812-.01875-2.30386-1.92752-4.45719-4.24172zm472.14118-2.42036c-4.66115-5.52532-4.89056-6.20741-2.71938-8.08527 25.70446-22.23207 38.82547-33.59185 53.13117-45.99941 19.08723-16.55468 17.63265-15.99883 23.27368-8.89376 3.03739 3.82568 3.05119 3.89547 1.10505 5.58529-5.74438 4.98779-45.423 39.34827-53.69534 46.49854-3.25482 2.81333-6.40634 5.56908-7.00338 6.12388-3.44448 3.2008-10.03326 8.4622-10.52007 8.40069-.31365-.03963-1.92093-1.67311-3.57173-3.62996zm-29.76149-29.95124c-2.34021-2.04147-4.4385-3.83395-4.66287-3.98329-.32939-.21925 6.88226-8.98745 11.39907-13.85942.55806-.60195 3.53267-3.97037 6.61023-7.48538 19.56242-22.34301 28.58408-32.58731 30.23846-34.33634 1.03843-1.09785 3.061-3.50787 4.49459-5.3556l2.60653-3.35948-3.51397-3.12783c-8.29642-7.384783-18.34057-16.177745-19.53382-17.100541-1.00217-.775034-.42661-1.998934 2.57574-5.477241 3.59542-4.165394 3.99537-4.370429 5.70884-2.926697 1.0134.853872 14.34344 12.451753 29.62229 25.773069l27.77974 24.22058-3.09085 3.89303c-1.69998 2.14118-3.48278 4.13467-3.96178 4.42999-.479.29532-5.89217-3.85284-12.02927-9.21811-6.13708-5.36529-11.69605-10.06165-12.35326-10.43637-.75245-.42903-11.36775 10.93091-28.66735 30.67832-15.10983 17.2478-27.80879 31.3649-28.2199 31.37135-.41111.00645-2.6622-1.65857-5.00242-3.70004zm-381.37331-19.50079c-.20221-.68182-1.11168-6.85371-2.02104-13.71531-.90936-6.86159-2.2882-16.96685-3.06408-22.45612-.77589-5.48928-2.33867-16.941907-3.47287-25.450285-1.13419-8.508377-2.72592-20.1921-3.5372-25.963828-.81127-5.771728-1.47503-11.22447-1.47503-12.117206 0-.984081 2.51058-2.921671 6.37654-4.921198l6.37654-3.298042 3.37817 2.800374c1.85799 1.540206 5.17903 4.442499 7.38009 6.44954 2.20106 2.007042 10.07987 9.003497 17.50845 15.547679 7.42859 6.544181 15.98539 14.171731 19.01511 16.950109 5.75793 5.280254 18.82852 16.909887 25.25628 22.471897 2.06348 1.78559 3.74645 3.53683 3.73992 3.89166-.00652.35483-2.72387 2.13127-6.03855 3.94764l-6.02668 3.30248-10.93814-10.14679-10.93812-10.146797-7.28504 3.959877c-4.00675 2.17794-11.33697 6.10642-16.28936 8.72999-4.9524 2.62356-9.30099 5.04435-9.66355 5.37955-.36256.33519-.21167 3.30418.33529 6.59775.54698 3.29356 1.53638 9.83572 2.19869 14.53813l1.20421 8.54982-5.82598 3.16939c-4.01153 2.18231-5.94049 2.78329-6.19365 1.92969zm19.20088-54.29109 12.551-6.642079-6.45874-6.083061c-15.163-14.281032-25.29055-23.448729-25.58232-23.157682-.29035.289651.68598 7.527149 4.25559 31.546348.775 5.214812 1.42337 9.818324 1.44081 10.230014.05461 1.28844.92586.91619 13.79366-5.89354zm328.90349 48.16995c-10.47778-2.55227-23.78941-10.37659-29.82252-17.52908-7.34287-8.7053-9.38368-22.50249-4.82988-32.653269l2.31544-5.161303 5.16317 3.021592c2.83974 1.661877 5.30209 3.149955 5.4719 3.30684.1698.156886-.39298 1.960568-1.25061 4.00818-4.83548 11.5448 1.87442 23.3821 17.43222 30.75314 12.44223 5.89494 21.56818 4.40617 25.98982-4.23991 4.39508-8.59411 2.00166-13.03195-16.32841-30.275666-16.97173-15.965898-20.09964-22.502496-16.13373-33.715755 3.49389-9.878652 13.69039-17.691041 24.32001-18.633593 14.66432-1.300315 35.8355 12.086514 41.03371 25.946178 2.71623 7.242118 2.7208 10.956915.02359 19.153191l-2.14208 6.509387-5.11142-2.96351c-5.37028-3.113603-5.32849-3.00238-4.04646-10.769987 1.97508-11.966719-12.28074-25.621865-26.77635-25.648102-6.97651-.012628-10.32894 2.110051-13.60128 8.612017-2.20246 4.376172-2.23015 4.720865-.68811 8.565424 1.05455 2.62918 4.47131 6.614082 9.94253 11.5958 22.33211 20.334076 24.88352 23.833996 24.91324 34.175166.03302 11.48184-8.10524 22.70221-18.75433 25.85695-5.85525 1.7346-10.26254 1.75682-17.12045.08631zm-59.27438-31.33875-6.24878-1.55181-5.06997-16.045745c-2.78847-8.825161-5.46262-17.168553-5.94253-18.540872-.47991-1.372318-2.29834-7.210912-4.04096-12.974652-1.74263-5.76374-4.44106-14.52163-5.99654-19.461978-1.55547-4.940349-3.61589-11.559458-4.57871-14.709133-.96282-3.149674-1.86929-5.608259-2.01438-5.463523-.33029.329495-8.70815 31.304058-14.90438 55.104411-2.57235 9.880697-4.86354 18.266787-5.09152 18.635752-.33507.5423-11.03963-1.859062-12.22477-2.742388-.26666-.198751 5.7834-23.755753 9.84917-38.349492.53525-1.921247 3.94894-14.72124 7.58598-28.44443 3.63703-13.723189 6.93458-25.296964 7.3279-25.7194987 1.11184-1.1944181 14.16926 2.5685176 15.13376 4.3612984.47253.8783243 1.74965 4.6958663 2.83805 8.4834263 1.08841 3.787561 2.87636 9.80577 3.97324 13.373799 5.39998 17.56557 9.45612 30.874656 10.64598 34.931756 4.22972 14.4223 8.49716 28.271164 8.80674 28.579987.33188.33107 7.29952-25.174171 16.25985-59.519542 2.07653-7.95945 3.86929-14.601545 3.9839-14.760211.11462-.158665 2.17927.396202 4.58813 1.233039 2.40885.836836 5.22012 1.528056 6.24726 1.536046 1.29867.0101 1.71565.546552 1.36891 1.761111-.27423.960625-3.52685 13.199214-7.22803 27.196867-13.68102 51.740912-17.19786 64.264782-18.09796 64.448992-.50686.10373-3.73351-.50972-7.17034-1.36321zm-211.82881-2.45423c-1.34285-4.08861-23.64763-88.197769-23.82429-89.839077-.17732-1.647484.87405-2.308457 5.99905-3.771474 5.75985-1.644243 6.24987-1.652776 6.70401-.116742.26948.91144 2.35001 8.843123 4.62343 17.625965 5.43099 20.981591 14.82395 56.073652 16.05228 59.971332l.97142 3.082474 23.20666-6.273207c12.76365-3.450264 23.42969-6.050704 23.7023-5.778756.45466.453555 2.92022 9.035278 3.02252 10.520245.02427.352565-3.21993 1.407842-7.20936 2.34506-3.98943.93722-8.60415 2.1095-10.25495 2.60509-6.16786 1.85166-40.70868 10.87665-41.62754 10.87665-.52568 0-1.14017-.5614-1.36553-1.24756zm120.54506-16.467831c.01391-1.668919 1.06735-16.492137 4.45078-62.627648.84539-11.527479 1.82693-23.598748 2.18121-26.8250424L422.33099 0l6.02832.6285523c3.31558.3457038 6.19175.7915786 6.39149.9908329.19974.1992543-.32854 9.9666228-1.17397 21.7052638-.84542 11.738641-2.22458 31.672803-3.06479 44.298138-.84022 12.625334-1.75907 24.414802-2.0419 26.198816l-.51423 3.243663h-6.4578c-5.48885 0-6.45563-.262066-6.44325-1.746587z"/>
</svg>